<?xml version="1.0" encoding="UTF-8"?>
<svg id="Layer_2" data-name="Layer 2" xmlns="http://www.w3.org/2000/svg" viewBox="0 0 216.97 17.66">
  <g id="Layer_1-2" data-name="Layer 1">
    <g>
      <path d="M30.83.36c1.81,0,3.65.38,5.03,1.33v3.19c-1.33-1.17-3.08-1.79-5.01-1.79-2.98,0-5.77,1.86-5.77,5.7s2.79,5.7,5.77,5.7,3.7-.6,5.01-1.79v3.19c-1.38.95-3.22,1.33-5.03,1.33-4.67,0-9.01-2.88-9.01-8.46S26.16.31,30.83.31v.05ZM36.79,17.02L44.49,0l7.72,17.02h-3.17l-1.53-3.5h-6.17l-1.53,3.5h-3.03ZM46.42,10.97l-2-4.53-1.98,4.53s3.98,0,3.98,0ZM68.19,17.66l-11.18-12.37v11.73h-3.03V.74h2.79l8.39,9.39V.74h3.03s0,16.93,0,16.93ZM85.99,17.66l-11.18-12.37v11.73h-3.03V.74h2.79l8.39,9.39V.74h3.03s0,16.93,0,16.93ZM92.62,9.96v4.34h6.41v2.72h-9.44V.74h9.44v2.72h-6.41v3.79h6.2v2.72s-6.2,0-6.2,0ZM108.28,7.58c2.29,1,4.12,2.07,4.12,4.82s-2.57,4.89-5.6,4.89-5.6-1.81-5.75-5.1h3.22c.14,1.81,1.19,2.55,2.6,2.55s2.38-.67,2.38-2.03-1.1-1.93-2.86-2.69l-1.33-.57c-1.84-.79-3.65-2.19-3.65-4.65s2.38-4.48,5.32-4.48,4.96,1.88,5.27,4.58h-3.22c-.21-1.29-.93-2-2.19-2s-2,.6-2,1.69.79,1.72,2.31,2.36l1.33.6.05.05Z"/>
      <g>
        <path d="M118.5.48h3.01c2.44,0,4.36.4,6.2,2.1,1.75,1.64,2.66,3.88,2.66,6.27s-.89,4.5-2.57,6.11c-1.84,1.77-3.81,2.21-6.29,2.21h-3.01V.48ZM121.49,16.19c2.19,0,4.01-.44,5.6-2.02,1.42-1.42,2.22-3.32,2.22-5.32,0-2.13-.84-4.12-2.41-5.56-1.59-1.44-3.32-1.82-5.4-1.82h-1.93v14.71h1.93Z"/>
        <path d="M134,1.48v6.07h6.73v1h-6.73v7.64h6.91v1h-7.97V.48h7.97v1h-6.91Z"/>
        <path d="M157.43,3.89c-1.28-1.57-3.54-2.64-5.6-2.64-4.16,0-7.6,3.59-7.6,7.69,0,1.95.84,3.79,2.24,5.16,1.4,1.33,3.39,2.3,5.36,2.3s4.36-1.04,5.6-2.55v1.46c-1.57,1.31-3.5,2.08-5.56,2.08-4.65,0-8.71-3.88-8.71-8.55s3.99-8.59,8.73-8.59c2.02,0,4.05.8,5.54,2.17v1.46Z"/>
        <path d="M176.85,8.83c0,4.7-3.97,8.57-8.66,8.57s-8.66-3.88-8.66-8.57,3.94-8.57,8.66-8.57,8.66,3.88,8.66,8.57ZM160.59,8.83c0,4.12,3.43,7.58,7.6,7.58s7.6-3.48,7.6-7.58-3.46-7.58-7.6-7.58-7.6,3.46-7.6,7.58Z"/>
        <path d="M179.44.48h3.01c2.44,0,4.36.4,6.2,2.1,1.75,1.64,2.66,3.88,2.66,6.27s-.89,4.5-2.57,6.11c-1.84,1.77-3.81,2.21-6.29,2.21h-3.01V.48ZM182.43,16.19c2.19,0,4.01-.44,5.6-2.02,1.42-1.42,2.22-3.32,2.22-5.32,0-2.13-.84-4.12-2.41-5.56-1.59-1.44-3.32-1.82-5.4-1.82h-1.93v14.71h1.93Z"/>
        <path d="M194.94,1.48v6.07h6.73v1h-6.73v7.64h6.91v1h-7.97V.48h7.97v1h-6.91Z"/>
        <path d="M205.1.48h3.01c2.44,0,4.36.4,6.2,2.1,1.75,1.64,2.66,3.88,2.66,6.27s-.89,4.5-2.57,6.11c-1.84,1.77-3.81,2.21-6.29,2.21h-3.01V.48ZM208.09,16.19c2.19,0,4.01-.44,5.6-2.02,1.42-1.42,2.22-3.32,2.22-5.32,0-2.13-.84-4.12-2.41-5.56-1.59-1.44-3.32-1.82-5.4-1.82h-1.93v14.71h1.93Z"/>
      </g>
      <g>
        <rect y=".38" width=".69" height="16.9"/>
        <path d="M3.15,14.97c-.17.05-.35.13-.46.23v.58s.05-.02.07-.07c.05-.08,0-.38.18-.49.18-.12.31-.08.77-.15.08-.01.15-.03.22-.04v-.23c-.33.1-.62.13-.78.17Z"/>
        <path d="M2.81,16.14c-.05.02-.08.02-.12.02v1.12h1.24v-1.15c-.12-.02-.23-.03-.29-.03-.26-.02-.66-.02-.84.03Z"/>
        <path d="M3.83,15.32c-.31.07-.51.08-.59.15-.1.07-.1.18-.1.18,0,0,.25-.02.35,0,.08.01.25.11.45.15v-.5s-.07.02-.1.03Z"/>
        <path d="M3.79,14.32s.09-.03.14-.04V.38h-1.24v13.79s.01,0,.02,0c.44.03.79.2,1.08.15Z"/>
        <path d="M7.17,1.92V.38h-1.79v2.24c.51-.25.91-.32,1.29-.45.18-.06.35-.15.5-.25Z"/>
        <path d="M6.16,3.57c.08-.25.26-.72.35-.84,0,0-.08.07-.44.51-.28.34-.53.6-.68.89v.72c.04-.07.09-.14.12-.19.18-.3.58-.84.66-1.08Z"/>
        <path d="M5.38,14.08v1.31c.32-.3.94-.85,1.79-1.26v-1.29c-.58.45-1.12.84-1.79,1.24Z"/>
        <path d="M7.17,11.95v-.87c-.24.06-.45.14-.57.24-.18.16-.25.33-.25.33,0,0-.07.1-.07-.02s.08-.59.59-.97c.11-.08.2-.15.29-.22v-.35c-.14.05-.28.11-.37.19-.26.21-.35.3-.35.3,0,0-.08.02-.05-.12.03-.13.15-.53.49-.74.09-.06.18-.12.27-.16v-.74c-.19-.1-.38-.22-.45-.28-.16-.13-.33-.28-.2-1.02.13-.76.13-.9.13-.97-.02-.07-.3-.3-.23-.72.07-.41.23-.66.23-.66v.76c.02.28.02.43.1.53.08.08.08.05.12.15.03.1-.13.84-.18,1.12-.05.28-.15.53.07.51.21-.03.15-.08.21-.15.04-.05.13-.07.21-.07v-.98c-.04-.07-.06-.15-.06-.23,0-.16.03-.2,0-.3-.03-.1-.03-.25.05-.25,0,0,0,0,.01,0v-1.9l-.85.96s.64-1.41.67-1.61c.03-.17.08-.36.18-.53v-.59c-.41.26-.58.69-.62,1-.05.38-.1.87-.44,1.46s-.56.94-.48,1.28c.08.35.35.92.38,1.25.03.33-.02.61-.08.94-.05.35-.1.59,0,.81.1.21.15.26.18.3.03.03.05.08-.03.03-.08-.07-.53-.49-.67-.95-.01-.04-.01-.09-.02-.13v4.89s.03-.02.04-.03c.56-.42,1.12-.96,1.75-1.49Z"/>
        <path d="M5.38,16.05v1.23h1.79v-2.38c-.51.25-1.05.58-1.57,1.04-.07.04-.14.08-.22.11Z"/>
        <path d="M8.07,17.28h2.34v-3.22c-.51.12-1.36.17-2.34.48v2.74Z"/>
        <path d="M8.82,1.78c.21.3,1.04.45,1.59.61v-.4c-.52-.1-1.03.02-1.45-.28-.03-.02-.05-.1,0-.1.44-.03.97-.13,1.45-.03V.38h-2.34v1.1c.27,0,.59.08.75.3Z"/>
        <path d="M8.1,6.21s-.02.01-.03.02v.17c.05-.05.08-.1.09-.13.03-.05.03-.1-.07-.05Z"/>
        <path d="M10.01,10.01s.05-.05-.13,0c-.18.05-.89.28-1.17.48s-.41.38-.41.38c0,0,.05-.31.28-.56.25-.25.26-.28.31-.31.05-.02.03-.05-.05,0-.08.05-.46.43-.59.62-.06.09-.11.15-.17.21v.42c.86-.62,1.5-1.01,1.69-1.1.2-.1.21-.1.25-.13Z"/>
        <path d="M8.45,11.85c-.13.1-.25.19-.37.29v1.66c.76-.2,1.63-.34,2.34-.82v-2.45c-.62.36-1.28.79-1.97,1.32Z"/>
        <path d="M9.33,3.39c.13.28-.3,1.15-.43,1.15-.15,0-.03-.51-.15-.67-.12-.14-.42-.24-.68-.23v2.32c.15-.13.33-.31.44-.33.13-.02.21-.02.33-.15.1-.15.23-.26.3-.31.07-.05.13-.08.15-.08.02.02-.21.61-.61,1.28-.28.48-.48.82-.6,1.01v.93s.03-.02.04-.04c.18-.21,1.71-.97,1.99-1.41.26-.44-.16-1.53.05-1.74.04-.04.14-.09.26-.14v-.3c-.36.08-.65.14-.66.14-.33.1-.25-.07-.1-.18.16-.11.34-.25.76-.53v-.26c-.45.4-1.08.92-1.15.92-.12.02-.03-.3.07-.56.1-.26.26-.44.21-.72-.03-.23-.2-.44-.53-.66-.25-.16-.61-.28-.95-.34v.27c.3.06,1.13.36,1.26.63Z"/>
        <path d="M9.32,8.56s.77-.3,1.1-.6v-.76c-.29.38-.87,1.23-1.1,1.36Z"/>
        <path d="M8.46,9.01c.35-.21.54-.25.54-.39s-.26-.36-.44-.26c-.13.08-.32.14-.49.17v.48c.15.05.3.07.39,0Z"/>
        <path d="M11.76,7.63c.16-.69-.67-2.27-.64-2.2.48,1.2,0,2.84-.07,3.01-.03.08-.17.34-.29.59v.25c.31-.3.82-.9,1-1.65Z"/>
        <path d="M13.39,8.7c.2-.05.43-.08.66-.08.28-.38.61-1.23.49-1.82-.03.28-.13.94-.76,1.56h.02c-.15.15-.25.26-.41.35Z"/>
        <path d="M10.89,2.62c.25.35.07.71-.07.85-.01.02-.04.04-.06.06v.37c.27-.17.42-.28.56-.43.3-.33.15-1.01-.56-1.36v.41c.06.03.1.06.13.1Z"/>
        <path d="M13.66.38h-2.9v1.32c.32.16.97.54,1.28.9.2.25.64.71.58,1-.07.28-.18.44-.61.66-.13.07-.71.21-1.25.34v.26c.53-.16,1.23-.32,1.41-.38.59-.2.99-.71.85-1.18-.08-.25-.46-.71-.84-.94-.1-.07,1.92.21,1.96,2.22.02.85,1.27,1.63,1.13,2.58-.12.71-.82,1.27-1.1,1.41.18-.02.36,0,.54.02.3.03.59.23.59.23,0,0-2.04.26-2.73.59-.54.26-1.15.56-1.82.93v2.37c.09-.08.18-.17.26-.27l.05-.1c1.4-1.76,3.58-1.05,3.71-.74-2.74-.32-2.58,1.71-4.02,2.36v3.34h6.14V.38h-3.24Z"/>
        <path d="M13.26,7.61c-.08.39-.36.74-.66,1.02.16-.08.43-.21.54-.33.15-.13.82-1.1.33-1.96h.02c-.25-.58-1.22-1.27-1.35-1.28.07.07.82,1.18.85,1.27.21.46.35.87.26,1.28Z"/>
      </g>
    </g>
  </g>
</svg>