<?xml version="1.0" encoding="UTF-8"?>
<svg id="Layer_2" data-name="Layer 2" xmlns="http://www.w3.org/2000/svg" viewBox="0 0 26.68 26.68">
  <defs>
    <style>
      .cls-1 {
        fill: #fff;
      }
    </style>
  </defs>
  <g id="Layer_1-2" data-name="Layer 1">
    <rect class="cls-1" width="26.68" height="26.68"/>
    <g>
      <rect x="4.89" y="4.89" width=".69" height="16.9"/>
      <path d="M8.04,19.48c-.17.05-.35.13-.46.23v.58s.05-.02.07-.07c.05-.08,0-.38.18-.49.18-.12.31-.08.77-.15.08-.01.15-.03.22-.04v-.23c-.33.1-.62.13-.78.17Z"/>
      <path d="M7.7,20.65c-.05.02-.08.02-.12.02v1.12h1.24v-1.15c-.12-.02-.23-.03-.29-.03-.26-.02-.66-.02-.84.03Z"/>
      <path d="M8.72,19.83c-.31.07-.51.08-.59.15-.1.07-.1.18-.1.18,0,0,.25-.02.35,0,.08.01.25.11.45.15v-.5s-.07.02-.1.03Z"/>
      <path d="M8.68,18.82s.09-.03.14-.04V4.89h-1.24v13.79s.01,0,.02,0c.44.03.79.2,1.08.15Z"/>
      <path d="M12.06,6.43v-1.54h-1.79v2.24c.51-.25.91-.32,1.29-.45.18-.06.35-.15.5-.25Z"/>
      <path d="M11.05,8.08c.08-.25.26-.72.35-.84,0,0-.08.07-.44.51-.28.34-.53.6-.68.89v.72c.04-.07.09-.14.12-.19.18-.3.58-.84.66-1.08Z"/>
      <path d="M10.27,18.58v1.31c.32-.3.94-.85,1.79-1.26v-1.29c-.58.45-1.12.84-1.79,1.24Z"/>
      <path d="M12.06,16.46v-.87c-.24.06-.45.14-.57.24-.18.16-.25.33-.25.33,0,0-.07.1-.07-.02s.08-.59.59-.97c.11-.08.2-.15.29-.22v-.35c-.14.05-.28.11-.37.19-.26.21-.35.3-.35.3,0,0-.08.02-.05-.12.03-.13.15-.53.49-.74.09-.06.18-.12.27-.16v-.74c-.19-.1-.38-.22-.45-.28-.16-.13-.33-.28-.2-1.02.13-.76.13-.9.13-.97-.02-.07-.3-.3-.23-.72.07-.41.23-.66.23-.66v.76c.02.28.02.43.1.53.08.08.08.05.12.15.03.1-.13.84-.18,1.12-.05.28-.15.53.07.51.21-.03.15-.08.21-.15.04-.05.13-.07.21-.07v-.98c-.04-.07-.06-.15-.06-.23,0-.16.03-.2,0-.3-.03-.1-.03-.25.05-.25,0,0,0,0,.01,0v-1.9l-.85.96s.64-1.41.67-1.61c.03-.17.08-.36.18-.53v-.59c-.41.26-.58.69-.62,1-.05.38-.1.87-.44,1.46s-.56.94-.48,1.28c.08.35.35.92.38,1.25.03.33-.02.61-.08.94-.05.35-.1.59,0,.81.1.21.15.26.18.3.03.03.05.08-.03.03-.08-.07-.53-.49-.67-.95-.01-.04-.01-.09-.02-.13v4.89s.03-.02.04-.03c.56-.42,1.12-.96,1.75-1.49Z"/>
      <path d="M10.27,20.56v1.23h1.79v-2.38c-.51.25-1.05.58-1.57,1.04-.07.04-.14.08-.22.11Z"/>
      <path d="M12.96,21.79h2.34v-3.22c-.51.12-1.36.17-2.34.48v2.74Z"/>
      <path d="M13.71,6.29c.21.3,1.04.45,1.59.61v-.4c-.52-.1-1.03.02-1.45-.28-.03-.02-.05-.1,0-.1.44-.03.97-.13,1.45-.03v-1.2h-2.34v1.1c.27,0,.59.08.75.3Z"/>
      <path d="M12.99,10.72s-.02.01-.03.02v.17c.05-.05.08-.1.09-.13.03-.05.03-.1-.07-.05Z"/>
      <path d="M14.9,14.52s.05-.05-.13,0c-.18.05-.89.28-1.17.48s-.41.38-.41.38c0,0,.05-.31.28-.56.25-.25.26-.28.31-.31.05-.02.03-.05-.05,0-.08.05-.46.43-.59.62-.06.09-.11.15-.17.21v.42c.86-.62,1.5-1.01,1.69-1.1.2-.1.21-.1.25-.13Z"/>
      <path d="M13.33,16.36c-.13.1-.25.19-.37.29v1.66c.76-.2,1.63-.34,2.34-.82v-2.45c-.62.36-1.28.79-1.97,1.32Z"/>
      <path d="M14.22,7.9c.13.28-.3,1.15-.43,1.15-.15,0-.03-.51-.15-.67-.12-.14-.42-.24-.68-.23v2.32c.15-.13.33-.31.44-.33.13-.02.21-.02.33-.15.1-.15.23-.26.3-.31.07-.05.13-.08.15-.08.02.02-.21.61-.61,1.28-.28.48-.48.82-.6,1.01v.93s.03-.02.04-.04c.18-.21,1.71-.97,1.99-1.41.26-.44-.16-1.53.05-1.74.04-.04.14-.09.26-.14v-.3c-.36.08-.65.14-.66.14-.33.1-.25-.07-.1-.18.16-.11.34-.25.76-.53v-.26c-.45.4-1.08.92-1.15.92-.12.02-.03-.3.07-.56.1-.26.26-.44.21-.72-.03-.23-.2-.44-.53-.66-.25-.16-.61-.28-.95-.34v.27c.3.06,1.13.36,1.26.63Z"/>
      <path d="M14.2,13.07s.77-.3,1.1-.6v-.76c-.29.38-.87,1.23-1.1,1.36Z"/>
      <path d="M13.35,13.52c.35-.21.54-.25.54-.39s-.26-.36-.44-.26c-.13.08-.32.14-.49.17v.48c.15.05.3.07.39,0Z"/>
      <path d="M16.65,12.14c.16-.69-.67-2.27-.64-2.2.48,1.2,0,2.84-.07,3.01-.03.08-.17.34-.29.59v.25c.31-.3.82-.9,1-1.65Z"/>
      <path d="M18.28,13.2c.2-.05.43-.08.66-.08.28-.38.61-1.23.49-1.82-.03.28-.13.94-.76,1.56h.02c-.15.15-.25.26-.41.35Z"/>
      <path d="M15.78,7.12c.25.35.07.71-.07.85-.01.02-.04.04-.06.06v.37c.27-.17.42-.28.56-.43.3-.33.15-1.01-.56-1.36v.41c.06.03.1.06.13.1Z"/>
      <path d="M18.55,4.89h-2.9v1.32c.32.16.97.54,1.28.9.2.25.64.71.58,1-.07.28-.18.44-.61.66-.13.07-.71.21-1.25.34v.26c.53-.16,1.23-.32,1.41-.38.59-.2.99-.71.85-1.18-.08-.25-.46-.71-.84-.94-.1-.07,1.92.21,1.96,2.22.02.85,1.27,1.63,1.13,2.58-.12.71-.82,1.27-1.1,1.41.18-.02.36,0,.54.02.3.03.59.23.59.23,0,0-2.04.26-2.73.59-.54.26-1.15.56-1.82.93v2.37c.09-.08.18-.17.26-.27l.05-.1c1.4-1.76,3.58-1.05,3.71-.74-2.74-.32-2.58,1.71-4.02,2.36v3.34h6.14V4.89h-3.24Z"/>
      <path d="M18.15,12.12c-.08.39-.36.74-.66,1.02.16-.08.43-.21.54-.33.15-.13.82-1.1.33-1.96h.02c-.25-.58-1.22-1.27-1.35-1.28.07.07.82,1.18.85,1.27.21.46.35.87.26,1.28Z"/>
    </g>
  </g>
</svg>